PathFileType	4	(X/Y/Z)	./resultDataOpenSim/trcMotMarkerGrf/sub09/qtm-12-04.trc
DataRate	CameraRate	NumFrames	NumMarkers	Units	OrigDataRate	OrigDataStartFrame	OrigNumFrames
250.000000	250.000000	14	24	m	250.000000	61	481
Frame#	Time	L.Toe.Tip			R.Toe.Tip			L.Ankle.Lat			R.Ankle.Lat			L.Ankle.Med			R.Ankle.Med			L.Heel			R.Heel			L.Knee.Lat			R.Knee.Lat			L.Knee.Med			R.Knee.Med			L.Thigh.Upper			R.Thigh.Upper			L.ASIS			R.ASIS			V.Sacral			L.Acromium			R.Acromium			C7			L.Elbow			R.Elbow			L.Wrist.Lat			R.Wrist.Lat
		X1	Y1	Z1	X2	Y2	Z2	X3	Y3	Z3	X4	Y4	Z4	X5	Y5	Z5	X6	Y6	Z6	X7	Y7	Z7	X8	Y8	Z8	X9	Y9	Z9	X10	Y10	Z10	X11	Y11	Z11	X12	Y12	Z12	X13	Y13	Z13	X14	Y14	Z14	X15	Y15	Z15	X16	Y16	Z16	X17	Y17	Z17	X18	Y18	Z18	X19	Y19	Z19	X20	Y20	Z20	X21	Y21	Z21	X22	Y22	Z22	X23	Y23	Z23	X24	Y24	Z24

61	0.24	-1.3456578	0.087885604	-0.083779357	-0.57916018	0.039037163	0.052927451	-1.3596226	0.24306624	-0.13029736	-0.72635871	0.053301557	0.0826711	-1.3354384	0.22962299	-0.03649103	-0.7179732	0.090934123	-0.0085301481	-1.4196046	0.2911339	-0.080745149	-0.79479457	0.031595212	0.033322796	-0.9819078	0.41288937	-0.15445807	-0.69190615	0.50474801	0.14324429	-0.9734582	0.3982632	-0.028486155	-0.70741943	0.49285788	0.016765137	-0.93719301	0.81821208	-0.16374237	-0.90180942	0.84916626	0.20874201	-0.84424639	0.90422293	-0.11216106	-0.83165263	0.93350826	0.12761742	-1.0073969	0.97594514	0.012369241	-0.82237542	1.3699222	-0.14624149	-0.85647895	1.3751621	0.18225447	-0.90560331	1.4261818	0.014292792	-0.95835393	1.0236183	-0.23080822	-1.0075576	1.0437613	0.24988024	-0.7568309	0.8438369	-0.20884988	-0.89178259	0.79676613	0.27676172
62	0.244	-1.3317295	0.090578673	-0.085245875	-0.57905032	0.03894656	0.05272482	-1.3462033	0.24592587	-0.12994442	-0.72628793	0.053340447	0.082624756	-1.3218266	0.2317834	-0.036171595	-0.71779078	0.09091301	-0.0086894185	-1.4061828	0.29397221	-0.08061197	-0.7948268	0.031634391	0.033319343	-0.9679336	0.41326907	-0.15385426	-0.68820628	0.50462715	0.14305019	-0.96171148	0.39860015	-0.027494124	-0.70441037	0.49292624	0.01656279	-0.93045213	0.81897123	-0.16336965	-0.89505352	0.85077808	0.20915536	-0.83802501	0.90541138	-0.11195458	-0.82472237	0.93467723	0.12791821	-1.0010704	0.97745761	0.012857446	-0.81604124	1.3710212	-0.14628453	-0.84942646	1.3764065	0.18232975	-0.89890732	1.4276536	0.014671264	-0.95261912	1.0249163	-0.22979281	-1.000207	1.0446927	0.25063415	-0.75298356	0.84295044	-0.20906567	-0.88280916	0.79803972	0.27640956
63	0.248	-1.3172871	0.093001911	-0.086626014	-0.57897791	0.038877686	0.052566616	-1.3325038	0.24847733	-0.12954246	-0.72624552	0.053371891	0.082604083	-1.3084226	0.23362778	-0.035660762	-0.71760378	0.09089477	-0.008811556	-1.3925487	0.29648833	-0.080696754	-0.79487057	0.031666293	0.033311831	-0.95405366	0.41385191	-0.15316852	-0.68443326	0.50439753	0.14282248	-0.94857135	0.39911994	-0.026619217	-0.70143856	0.49292067	0.016415844	-0.92384979	0.81985604	-0.16304209	-0.88860688	0.85254083	0.20951749	-0.83182137	0.90672751	-0.11174794	-0.81822045	0.93601983	0.12807635	-0.99483094	0.97901827	0.013329752	-0.80987195	1.3722251	-0.14634927	-0.84240547	1.3777485	0.18238449	-0.89224612	1.4291985	0.01504134	-0.94686686	1.0262311	-0.22884702	-0.99286662	1.0457123	0.25139565	-0.74920625	0.8421587	-0.20929744	-0.8738565	0.79943766	0.27603345
64	0.252	-1.302403	0.095141868	-0.087909842	-0.57893555	0.038827641	0.052432518	-1.3185367	0.25068202	-0.12911338	-0.7262412	0.053399695	0.082601356	-1.2952409	0.2351498	-0.034949181	-0.71743756	0.090887337	-0.0089025907	-1.3788528	0.29847326	-0.080652247	-0.79492655	0.031690063	0.033293779	-0.94033373	0.41463029	-0.15239674	-0.68089416	0.50406686	0.14271835	-0.93465554	0.39983443	-0.025760422	-0.69842872	0.49285748	0.016383997	-0.91744171	0.82084628	-0.16279288	-0.88261975	0.8543753	0.2098031	-0.82561536	0.90818421	-0.11152587	-0.81219473	0.9375172	0.12809682	-0.98863988	0.98062341	0.013796102	-0.8037862	1.3735349	-0.14641844	-0.83542022	1.3791831	0.18242357	-0.88561652	1.4308043	0.015395866	-0.94106986	1.0276055	-0.22790405	-0.98553382	1.046818	0.25215263	-0.74551349	0.84145584	-0.20955278	-0.86492215	0.8009615	0.27563991
65	0.256	-1.2871294	0.097014626	-0.089087436	-0.57891805	0.038793345	0.0523162	-1.3043363	0.25252144	-0.12868378	-0.72627322	0.053431862	0.082604576	-1.2818882	0.23642367	-0.03419789	-0.71729928	0.090891461	-0.0089677577	-1.3651364	0.29989805	-0.08042386	-0.79499501	0.031708664	0.033262162	-0.92674385	0.41561193	-0.15154448	-0.67766306	0.50371223	0.14276897	-0.92057215	0.40075113	-0.024832309	-0.69539757	0.49274087	0.016452053	-0.91118645	0.82195191	-0.16260969	-0.87738389	0.85621358	0.20995164	-0.81945628	0.90977435	-0.11129495	-0.8064318	0.93913359	0.12804942	-0.98245868	0.98228607	0.014281412	-0.79773983	1.3749499	-0.14648929	-0.82847745	1.3807107	0.18245227	-0.87902208	1.4324628	0.015728291	-0.93525521	1.029078	-0.22694453	-0.97821157	1.0480181	0.25289456	-0.74191924	0.84083841	-0.20983544	-0.85600897	0.80261182	0.27523189
66	0.26	-1.2715203	0.098638784	-0.090136308	-0.57892473	0.038772059	0.052223667	-1.2899434	0.25400831	-0.12827736	-0.72633637	0.053470458	0.082607624	-1.2676598	0.23759974	-0.033705365	-0.71718346	0.090903758	-0.0090051713	-1.351356	0.30085805	-0.080126018	-0.79507636	0.031725027	0.033220406	-0.9131238	0.41682515	-0.15066193	-0.67469321	0.5034011	0.14292816	-0.90650094	0.40182349	-0.023810162	-0.6924109	0.4925732	0.016569164	-0.9048704	0.82321613	-0.16240512	-0.87299693	0.85802508	0.20993507	-0.81346673	0.91146872	-0.1110718	-0.80070781	0.94082802	0.12801663	-0.97626783	0.98402476	0.014824439	-0.7917341	1.376467	-0.14656658	-0.82158331	1.3823343	0.18247713	-0.87247277	1.434171	0.016029368	-0.92945352	1.0306667	-0.22597826	-0.97091005	1.0493193	0.25361247	-0.73842574	0.8403127	-0.21013503	-0.84713347	0.80438684	0.27481426
67	0.264	-1.2556597	0.1000103	-0.091004904	-0.57895707	0.038761606	0.052165514	-1.2753927	0.25516581	-0.12790262	-0.72642802	0.053509792	0.082614551	-1.2522681	0.23875329	-0.033607246	-0.71708494	0.090921723	-0.0090086474	-1.3374833	0.3014363	-0.079823642	-0.79516827	0.031739564	0.033173909	-0.89933152	0.41830209	-0.14981252	-0.67193993	0.50313961	0.14315277	-0.89235926	0.40299488	-0.022703978	-0.68954308	0.49237153	0.016728425	-0.89828433	0.82468289	-0.16208541	-0.86898088	0.85983496	0.20983597	-0.80772492	0.91323758	-0.11085882	-0.79496843	0.94256422	0.12803699	-0.97007282	0.98584722	0.01544535	-0.78578007	1.3780851	-0.14664836	-0.81474875	1.3840547	0.18250496	-0.8659843	1.4359314	0.016281136	-0.92368108	1.0323733	-0.22501849	-0.96364154	1.0507192	0.25430011	-0.73502758	0.83989035	-0.21043234	-0.83831489	0.80628098	0.27439426
68	0.268	-1.2396444	0.10111176	-0.091621808	-0.57901476	0.038759522	0.05214981	-1.26071	0.25600764	-0.12755135	-0.72654481	0.053542666	0.082633424	-1.2364584	0.23976027	-0.033646776	-0.71700443	0.090945474	-0.0089744599	-1.3235407	0.30166444	-0.079504849	-0.79526396	0.031753212	0.033126466	-0.88542233	0.42003102	-0.14898615	-0.66939917	0.50290607	0.14343482	-0.87810231	0.40427954	-0.021536438	-0.6868975	0.49216454	0.017005122	-0.89151411	0.826349	-0.16167112	-0.86449438	0.86169933	0.20981578	-0.80216659	0.91507516	-0.11063634	-0.78919757	0.94431756	0.1281149	-0.96389176	0.98774344	0.016120061	-0.77987913	1.3798036	-0.14672171	-0.80798968	1.3858707	0.18254192	-0.85957512	1.437755	0.016452382	-0.91794762	1.0341931	-0.22407803	-0.95641012	1.0522106	0.25495004	-0.73172299	0.83958102	-0.21071346	-0.82956508	0.80828791	0.27397641
69	0.272	-1.2234904	0.10194493	-0.091961829	-0.57909243	0.038762412	0.05217741	-1.2459161	0.2565403	-0.12720788	-0.72667865	0.053567176	0.082666991	-1.2213804	0.24042907	-0.033419257	-0.71694619	0.090976868	-0.0089040738	-1.3095562	0.30154359	-0.079160121	-0.79535598	0.031771385	0.033078611	-0.87158389	0.42194572	-0.14811433	-0.66708427	0.50269788	0.14379371	-0.86383457	0.4057669	-0.020342878	-0.68461133	0.49198172	0.017526144	-0.88487571	0.82815937	-0.16128249	-0.859056	0.86364367	0.20997745	-0.79664785	0.91699878	-0.11037812	-0.78334248	0.94607435	0.12824646	-0.95773954	0.98969573	0.016795495	-0.77402519	1.381615	-0.14677222	-0.80130993	1.3877783	0.18259083	-0.85325658	1.4396592	0.01650981	-0.91227178	1.0361209	-0.22317608	-0.94920946	1.0537884	0.25555614	-0.72851864	0.83938853	-0.21097725	-0.82087903	0.81040532	0.27355811
70	0.276	-1.2070732	0.10255002	-0.092100983	-0.57918129	0.038767622	0.052242042	-1.2310392	0.25676988	-0.12685543	-0.72682117	0.053587204	0.082709494	-1.2075087	0.24069116	-0.032751349	-0.71691373	0.091019428	-0.0088018292	-1.2955105	0.30106099	-0.078851401	-0.79544164	0.031802498	0.033025916	-0.85787876	0.42397681	-0.14718999	-0.66500345	0.50252665	0.1442547	-0.84967398	0.40754834	-0.019166406	-0.68273523	0.4918413	0.018332365	-0.87850007	0.8300609	-0.16098241	-0.85284596	0.86563586	0.21029388	-0.79106422	0.91902851	-0.11006693	-0.77739854	0.94782927	0.12842389	-0.95162671	0.99168781	0.017426907	-0.7682101	1.3835029	-0.1467943	-0.7946904	1.3897689	0.18264689	-0.84701431	1.4416475	0.016458165	-0.90668506	1.038153	-0.22233504	-0.94203416	1.0554477	0.25612214	-0.72542748	0.83931245	-0.21123244	-0.81223596	0.81263792	0.2731344
71	0.28	-1.1902402	0.10297587	-0.092151472	-0.57927663	0.038775291	0.052335485	-1.2161264	0.25669861	-0.12648235	-0.72697148	0.053606463	0.082751596	-1.1944062	0.2405963	-0.031773714	-0.71690861	0.091077737	-0.0086723358	-1.2813606	0.30020159	-0.078674285	-0.795523	0.031851415	0.03296162	-0.84415765	0.42608786	-0.14630878	-0.66315398	0.50238987	0.14483058	-0.83563349	0.4096551	-0.018042108	-0.681087	0.4917381	0.019247495	-0.87216466	0.83204759	-0.16070455	-0.84631226	0.86761908	0.21067333	-0.78538404	0.92117175	-0.10970406	-0.77138916	0.94958827	0.12864099	-0.94556247	0.9937116	0.017996366	-0.76242318	1.3854528	-0.14679152	-0.78810741	1.391832	0.18270173	-0.84080079	1.4436885	0.016370305	-0.90119672	1.0402829	-0.22155369	-0.93488713	1.0571812	0.25665988	-0.7224602	0.83935107	-0.21148992	-0.8036261	0.81498995	0.27270605
72	0.284	-1.1729631	0.10323307	-0.092156441	-0.57938363	0.038788493	0.052453227	-1.201212	0.25632432	-0.12608742	-0.72713671	0.053622646	0.082790933	-1.1809423	0.24026417	-0.030851387	-0.71692968	0.091154743	-0.008520306	-1.2671073	0.29895968	-0.078630654	-0.79560045	0.03191461	0.032884205	-0.83028561	0.42827652	-0.14554721	-0.66149518	0.5022555	0.14549443	-0.82170118	0.41207607	-0.016997777	-0.67934881	0.49165182	0.019983299	-0.86563109	0.83414515	-0.16036603	-0.83976839	0.86955774	0.21104547	-0.779611	0.92342534	-0.10931228	-0.76528369	0.95136232	0.12889474	-0.93954547	0.99576857	0.018508877	-0.75665317	1.3874587	-0.14677313	-0.78155884	1.393958	0.18275401	-0.83457774	1.4457405	0.016340055	-0.89572065	1.0424897	-0.22076484	-0.9277728	1.0589772	0.25717768	-0.71960725	0.83950124	-0.21175023	-0.79506773	0.81745128	0.27227826
73	0.288	-1.1553237	0.10329816	-0.092092675	-0.57951339	0.038811897	0.052597079	-1.1862204	0.25565936	-0.12568732	-0.72732286	0.053626382	0.082841763	-1.165934	0.23984294	-0.030359714	-0.71697068	0.091249846	-0.0083520331	-1.2527889	0.29734239	-0.07862482	-0.79566938	0.031983424	0.032799635	-0.81637173	0.43058793	-0.14482709	-0.65993463	0.50207462	0.14616521	-0.80792707	0.41482293	-0.016059315	-0.67734015	0.49157169	0.020377654	-0.85899189	0.83636283	-0.15998884	-0.83335254	0.87145327	0.21138268	-0.7737536	0.92578322	-0.10891849	-0.75904931	0.95315012	0.12917715	-0.93356097	0.99785762	0.018985449	-0.75090008	1.3895135	-0.14675072	-0.77505492	1.3961354	0.18280898	-0.82837124	1.447794	0.016404798	-0.89008982	1.0447378	-0.21985181	-0.92068852	1.0608222	0.25767611	-0.71682616	0.83975709	-0.21199562	-0.78658459	0.81999956	0.27185743
74	0.292	-1.1374062	0.10315289	-0.091931135	-0.57967182	0.038848343	0.052771549	-1.170958	0.25473546	-0.12531294	-0.72752503	0.053607853	0.082930605	-1.1493736	0.23936264	-0.030291548	-0.71702181	0.091360298	-0.0081752853	-1.2384192	0.29536373	-0.078602117	-0.79572504	0.032051541	0.032715037	-0.8026698	0.43310038	-0.14398251	-0.65840023	0.50183651	0.14676895	-0.79443228	0.41791594	-0.015172043	-0.67514082	0.4915065	0.020490981	-0.85250406	0.83867892	-0.15965406	-0.82712847	0.87332411	0.21168368	-0.76783787	0.92823495	-0.10853035	-0.75276942	0.95493654	0.12947437	-0.92759771	0.99997611	0.01944361	-0.74518154	1.3916016	-0.14673278	-0.76858603	1.3983497	0.18286376	-0.82224068	1.4498631	0.016538061	-0.88425482	1.0470037	-0.21877832	-0.91362574	1.0627077	0.25815375	-0.71406469	0.84011072	-0.21220617	-0.77817664	0.82261496	0.27144882
